<svg width="32" height="32" viewBox="0 0 32 32" fill="none" xmlns="http://www.w3.org/2000/svg">
<path d="M10.3306 15.5262C9.64057 16.1495 8.91889 16.737 8.16844 17.2862C8.16844 17.2862 7.99979 18.8126 8.78898 19.7467C10.7241 19.0483 12.6571 17.2559 14.5901 15.498L10.3306 15.5262Z" fill="url(#paint0_linear_1339_8815)"/>
<path d="M20.603 10.1917C17.9457 9.03929 15.2906 11.0501 12.6484 13.4198L16.9728 13.3939C18.9187 11.8263 20.8495 10.7301 22.8106 11.2079C22.8776 11.2274 22.8949 11.182 22.8322 11.1561L20.603 10.1917Z" fill="url(#paint1_linear_1339_8815)"/>
<path d="M28.8559 13.7643L25.9932 12.5254C28.9315 13.7967 29.0461 17.6886 29.098 21.6346L31.9607 22.8778C31.9088 18.9276 31.7942 15.0357 28.8559 13.7643Z" fill="#1C00C2"/>
<path d="M3.09399 18.6526C3.09399 18.6526 5.06155 19.5023 5.16534 19.5498C5.26912 19.5974 5.29074 19.5239 5.20426 19.4677C2.96209 17.859 2.91885 14.1985 2.87345 10.538L0.0107422 9.29688C0.0626341 13.3293 0.10804 17.3617 3.09399 18.6526Z" fill="url(#paint2_linear_1339_8815)"/>
<path d="M23.6797 14.3712C23.9824 15.8847 24.0213 17.6642 24.0451 19.448L26.9078 20.6869C26.8732 17.9604 26.8062 15.2599 25.7986 13.4307C25.0981 13.5561 24.3132 13.969 23.6797 14.3712Z" fill="url(#paint3_linear_1339_8815)"/>
<path d="M25.6536 12.3784C23.2277 11.3276 20.8169 12.9059 18.4082 14.9859L19.2017 18.0886C22.2958 15.2649 25.3941 12.2659 28.5163 13.6173L25.6536 12.3784Z" fill="url(#paint4_linear_1339_8815)"/>
<path d="M16.6483 16.5596C13.8894 19.0828 11.137 21.5931 8.37155 20.8839C8.15534 20.832 8.52507 21.005 8.52507 21.005L10.6202 21.9131C12.8991 22.899 15.1607 21.5455 17.4353 19.6407L16.6483 16.5596Z" fill="url(#paint5_linear_1339_8815)"/>
<path d="M7.92423 12.7156L5.06152 11.4854C5.11342 15.5178 5.16098 19.5481 8.14477 20.841L10.5621 21.8854C10.5621 21.8854 10.7999 21.9848 10.7026 21.9329C8.01936 20.4994 7.97396 16.6075 7.92423 12.7156Z" fill="#1C00C2"/>
<defs>
<linearGradient id="paint0_linear_1339_8815" x1="8.14682" y1="17.6213" x2="14.5901" y2="17.6213" gradientUnits="userSpaceOnUse">
<stop stop-color="#00DEBB"/>
<stop offset="1" stop-color="#00DEBB"/>
</linearGradient>
<linearGradient id="paint1_linear_1339_8815" x1="12.6484" y1="11.6382" x2="22.8711" y2="11.6382" gradientUnits="userSpaceOnUse">
<stop stop-color="#00DEBB"/>
<stop offset="1" stop-color="#00DEBB"/>
</linearGradient>
<linearGradient id="paint2_linear_1339_8815" x1="0.359715" y1="14.6583" x2="4.95215" y2="14.291" gradientUnits="userSpaceOnUse">
<stop stop-color="#00DEBB"/>
<stop offset="1" stop-color="#00DEBB"/>
</linearGradient>
<linearGradient id="paint3_linear_1339_8815" x1="24.0508" y1="17.2301" x2="26.9394" y2="16.999" gradientUnits="userSpaceOnUse">
<stop stop-color="#00DEBB"/>
<stop offset="1" stop-color="#00DEBB"/>
</linearGradient>
<linearGradient id="paint4_linear_1339_8815" x1="18.4082" y1="15.0659" x2="28.5163" y2="15.0659" gradientUnits="userSpaceOnUse">
<stop stop-color="#128CFF"/>
<stop offset="1" stop-color="#128CFF"/>
</linearGradient>
<linearGradient id="paint5_linear_1339_8815" x1="8.3175" y1="19.4028" x2="17.444" y2="19.4028" gradientUnits="userSpaceOnUse">
<stop stop-color="#128CFF"/>
<stop offset="1" stop-color="#128CFF"/>
</linearGradient>
</defs>
</svg>
